<?xml version="1.0" encoding="utf-8"?>
<!-- Generator: Adobe Illustrator 26.3.1, SVG Export Plug-In . SVG Version: 6.00 Build 0)  -->
<svg version="1.1" id="Layer_2_00000084532507018612833830000012935254175505392024_"
	 xmlns="http://www.w3.org/2000/svg" xmlns:xlink="http://www.w3.org/1999/xlink" x="0px" y="0px" viewBox="0 0 274.7 274.7"
	 style="enable-background:new 0 0 274.7 274.7;" xml:space="preserve">
<style type="text/css">
	.st0{fill:#0C7047;}
</style>
<g id="Layer_1-2">
	<path class="st0" d="M274.7,137.2c0-20.9-21.4-35-40.7-26.9c-1.9,0.8-3.8,1.6-5.8,2.5c-7.1,3-14.6,6.2-22.6,9.3
		c-17.1,6.6-31.4-14.4-18.9-27.8c0.1-0.2,0.3-0.3,0.4-0.4c14.9-16.2,29.6-32.6,43.5-49.9c-17.2,13.9-33.7,28.6-49.9,43.5
		c-0.2,0.2-0.3,0.3-0.5,0.4c-13.4,12.4-34.4-2-27.8-19c3.1-7.9,6.3-15.5,9.3-22.5c0.8-2,1.7-3.9,2.5-5.8
		c8.1-19.2-5.9-40.6-26.7-40.7c-0.1,0-0.3,0-0.4,0h-0.2c-20.9,0-35,21.4-26.9,40.7c0.8,1.9,1.6,3.8,2.5,5.8c3,7.1,6.2,14.6,9.3,22.6
		c6.6,17.1-14.4,31.4-27.8,18.9c-0.2-0.1-0.3-0.3-0.5-0.4C77.6,72.6,61.2,57.9,44,44c13.9,17.2,28.6,33.7,43.5,49.8
		c0.1,0.2,0.3,0.3,0.4,0.5c12.5,13.4-1.9,34.4-19,27.8c-7.9-3.1-15.5-6.3-22.5-9.3c-1.9-0.8-3.8-1.6-5.6-2.4
		C21.7,102.2,0.1,116.1,0,137c0,0.1,0,0.3,0,0.4v0.2c0,20.9,21.4,35,40.7,26.9c1.9-0.8,3.8-1.6,5.8-2.5c7.1-3,14.6-6.2,22.6-9.3
		c17.1-6.6,31.4,14.4,18.9,27.8c-0.1,0.1-0.3,0.3-0.4,0.5c-14.9,16.2-29.6,32.6-43.5,49.9c17.2-13.9,33.7-28.6,49.9-43.6
		c0.2-0.1,0.3-0.3,0.5-0.4c13.4-12.5,34.4,1.8,27.8,18.9c-3.1,7.9-6.3,15.5-9.3,22.5c-0.8,1.9-1.6,3.8-2.4,5.6
		c-8.1,19.2,5.7,40.8,26.6,40.8c0.1,0,0.3,0,0.4,0h0.2c20.9,0,35-21.4,26.9-40.7c-0.8-1.9-1.6-3.8-2.5-5.8
		c-2.8-6.5-5.7-13.4-8.6-20.6c-7-17.7,2.5-28.9,20.9-24.2c3.6,0.9,5.1,2.4,6.6,3.8c16.2,14.9,32.6,29.6,49.9,43.5
		c-13.9-17.2-28.6-33.7-43.5-49.9l-0.4-0.4c-12.4-13.4,1.8-34.4,18.9-27.8c7.9,3.1,15.5,6.3,22.6,9.3c2,0.8,3.9,1.7,5.8,2.5
		c19.2,8.2,40.6-6,40.7-26.9L274.7,137.2L274.7,137.2z"/>
</g>
</svg>
