<?xml version="1.0" encoding="UTF-8"?><svg id="Layer_2" xmlns="http://www.w3.org/2000/svg" viewBox="0 0 500.1 499.55"><defs><style>.cls-1{fill:#0c7047;}</style></defs><g id="Layer_2-2"><g id="Layer_1-2"><path class="cls-1" d="M499.37,249.6c0-37.99-38.9-63.63-73.99-48.9-3.45,1.45-6.91,2.91-10.54,4.54-12.91,5.45-26.54,11.27-41.08,16.91-31.09,12-57.08-26.18-34.36-50.54,.18-.36,.55-.55,.73-.73,27.09-29.45,53.81-59.26,79.08-90.71-31.27,25.27-61.26,51.99-90.71,79.08-.36,.36-.55,.55-.91,.73-24.36,22.54-62.54-3.64-50.54-34.54,5.64-14.36,11.45-28.18,16.91-40.9,1.45-3.64,3.09-7.09,4.54-10.54C313.22,39.08,287.77,.18,249.96,0h-1.09c-37.99,0-63.63,38.9-48.9,73.99,1.45,3.45,2.91,6.91,4.54,10.54,5.45,12.91,11.27,26.54,16.91,41.08,12,31.09-26.18,57.08-50.54,34.36-.36-.18-.55-.55-.91-.73-28.9-27.09-58.72-53.81-89.99-79.08,25.27,31.27,51.99,61.26,79.08,90.53,.18,.36,.55,.55,.73,.91,22.72,24.36-3.45,62.54-34.54,50.54-14.36-5.64-28.18-11.45-40.9-16.91-3.45-1.45-6.91-2.91-10.18-4.36C39.45,185.97,.18,211.24,0,249.23v1.09c0,37.99,38.9,63.63,73.99,48.9,3.45-1.45,6.91-2.91,10.54-4.54,12.91-5.45,26.54-11.27,41.08-16.91,31.09-12,57.08,26.18,34.36,50.54-.18,.18-.55,.55-.73,.91-27.09,29.45-53.81,59.26-79.08,90.71,31.27-25.27,61.26-51.99,90.71-79.26,.36-.18,.55-.55,.91-.73,24.36-22.72,62.54,3.27,50.54,34.36-5.64,14.36-11.45,28.18-16.91,40.9-1.45,3.45-2.91,6.91-4.36,10.18-14.72,34.9,10.36,74.17,48.36,74.17h1.09c37.99,0,63.63-38.9,48.9-73.99-1.45-3.45-2.91-6.91-4.54-10.54-5.09-11.82-10.36-24.36-15.63-37.45-12.73-32.18,4.54-52.54,37.99-43.99,6.54,1.64,9.27,4.36,12,6.91,29.45,27.09,59.26,53.81,90.71,79.08-25.27-31.27-51.99-61.26-79.08-90.71l-.73-.73c-22.54-24.36,3.27-62.54,34.36-50.54,14.36,5.64,28.18,11.45,41.08,16.91,3.64,1.45,7.09,3.09,10.54,4.54,34.9,14.91,73.81-10.91,73.99-48.9l-.73-.55h0Z"/></g></g></svg>