<?xml version="1.0" encoding="UTF-8"?><svg id="Layer_2" xmlns="http://www.w3.org/2000/svg" viewBox="0 0 274.72 274.72"><defs><style>.cls-1{fill:#0c7047;}</style></defs><g id="Layer_1-2"><path class="cls-1" d="M274.72,137.17c-.03-20.9-21.41-35.02-40.66-26.87-1.9,.8-3.83,1.63-5.8,2.47-7.07,3.02-14.61,6.24-22.56,9.32-17.13,6.63-31.39-14.36-18.89-27.83,.14-.15,.27-.29,.41-.44,14.95-16.19,29.64-32.62,43.54-49.86-17.24,13.89-33.67,28.59-49.86,43.54-.16,.15-.32,.29-.47,.44-13.4,12.4-34.37-1.96-27.77-18.98,3.07-7.93,6.28-15.45,9.3-22.5,.84-1.96,1.66-3.9,2.47-5.79C172.53,21.5,158.58,.07,137.77,0c-.14,0-.28,0-.41,0h-.19c-20.9,.03-35.03,21.41-26.87,40.66,.8,1.9,1.63,3.83,2.47,5.8,3.02,7.08,6.25,14.63,9.33,22.59,6.63,17.13-14.36,31.39-27.83,18.89-.15-.14-.31-.29-.46-.43-16.19-14.94-32.62-29.64-49.85-43.55,13.9,17.23,28.6,33.66,43.55,49.85,.14,.15,.29,.31,.43,.46,12.48,13.45-1.86,34.43-18.97,27.8-7.93-3.07-15.46-6.29-22.52-9.3-1.9-.81-3.77-1.61-5.61-2.39C21.66,102.25,.06,116.12,0,136.96c0,.13,0,.27,0,.4v.19c.03,20.91,21.41,35.03,40.66,26.87,1.9-.8,3.83-1.63,5.79-2.47,7.08-3.02,14.63-6.25,22.59-9.33,17.13-6.63,31.39,14.36,18.89,27.83-.14,.15-.28,.31-.43,.46-14.94,16.19-29.64,32.62-43.55,49.85,17.23-13.9,33.66-28.6,49.85-43.55,.15-.14,.31-.29,.46-.43,13.44-12.49,34.43,1.84,27.81,18.95-3.07,7.94-6.29,15.48-9.31,22.54-.81,1.9-1.61,3.77-2.39,5.61-8.13,19.19,5.73,40.79,26.58,40.85,.13,0,.27,0,.4,0h.19c20.9-.03,35.02-21.41,26.87-40.66-.8-1.9-1.63-3.83-2.47-5.8-2.77-6.49-5.72-13.4-8.57-20.64-6.96-17.71,2.48-28.95,20.92-24.23,3.6,.92,5.05,2.38,6.6,3.82,16.19,14.95,32.62,29.64,49.86,43.54-13.89-17.24-28.59-33.67-43.54-49.86l-.4-.44c-12.43-13.42,1.83-34.43,18.89-27.83,7.94,3.08,15.49,6.3,22.56,9.32,1.97,.84,3.9,1.66,5.79,2.47,19.25,8.16,40.63-5.96,40.66-26.87v-.37Z"/></g></svg>